<svg width="97" height="97" viewBox="0 0 97 97" fill="none" xmlns="http://www.w3.org/2000/svg">
<path d="M22.03 5.25239e-05H73.9715C76.8663 -0.0062755 79.7338 0.559252 82.4094 1.66412C85.0851 2.76898 87.5162 4.39141 89.5631 6.43834C91.61 8.48526 93.2325 10.9163 94.3374 13.592C95.4422 16.2676 96.0077 19.1352 96.0014 22.0299V73.9712C96.0077 76.866 95.4422 79.7336 94.3374 82.4093C93.2325 85.0849 91.61 87.516 89.5631 89.5629C87.5162 91.6098 85.0851 93.2323 82.4094 94.3371C79.7338 95.442 76.8663 96.0075 73.9715 96.0012H22.03C19.1352 96.0075 16.2677 95.442 13.592 94.3371C10.9164 93.2323 8.48529 91.6098 6.43836 89.5629C4.39143 87.516 2.76896 85.0849 1.66409 82.4093C0.559226 79.7336 -0.00627552 76.866 5.25265e-05 73.9712V22.0299C-0.00627552 19.1352 0.559226 16.2676 1.66409 13.592C2.76896 10.9163 4.39143 8.48526 6.43836 6.43834C8.48529 4.39141 10.9164 2.76898 13.592 1.66412C16.2677 0.559252 19.1352 -0.0062755 22.03 5.25239e-05Z" fill="white"/>
<path d="M21.0337 27.3003C20.5281 27.3003 20.0513 27.3878 19.6001 27.567L28.6337 36.8672L37.7676 46.3339L37.934 46.5344L38.2006 46.8011L38.4673 47.0678L39.0006 47.6342L46.8342 55.6672C46.9643 55.7483 47.343 56.0982 47.6385 56.2465C48.0193 56.4363 48.431 56.6123 48.8555 56.6273C49.3142 56.6433 49.7825 56.512 50.1953 56.3115C50.5046 56.1611 50.6422 55.9457 51.0006 55.6683L60.0673 46.3019L69.2342 36.8683L78.0673 27.7686C77.4942 27.4585 76.8522 27.2977 76.2006 27.3013H21.0337V27.3003ZM18.2668 28.4331C17.3036 29.3462 16.6998 30.7179 16.6998 32.2667V62.8001C16.6998 64.0534 17.102 65.1926 17.7665 66.0662L19.0326 64.8662L28.4662 55.6993L36.8332 47.599L36.6668 47.3995L27.4998 37.9659L18.3329 28.4993L18.2668 28.4331ZM79.2673 28.7339L70.3339 37.967L61.2001 47.4006L61.0337 47.567L69.7334 56L79.167 65.167L79.7334 65.7003C80.2411 64.8854 80.5334 63.8817 80.5334 62.8001V32.2667C80.5334 30.8864 80.0555 29.6342 79.2673 28.7339ZM37.8998 48.6998L29.567 56.8001L20.1004 65.967L18.9004 67.134C19.5329 67.5414 20.2529 67.8006 21.0337 67.8006H76.2006C77.1393 67.8006 77.9905 67.4401 78.7009 66.8673L78.1014 66.2678L68.6347 57.1008L59.935 48.7008L52.1014 56.767C51.6779 57.0486 51.3942 57.36 50.9803 57.551C50.3137 57.8592 49.5841 58.1195 48.8502 58.1088C48.1142 58.0971 47.3921 57.8091 46.7318 57.4849C46.4001 57.3217 46.223 57.1595 45.8347 56.8342L37.8998 48.6998Z" fill="#121212"/>
</svg>
