<svg version="1.0" xmlns="http://www.w3.org/2000/svg" width="32" height="32" viewBox="0 0 32 32" preserveAspectRatio="xMidYMid meet"><g transform="translate(0,32) scale(0.1,-0.1)" fill="#FFF" stroke="none"> <path d="M95 306 c-101 -44 -125 -178 -46 -257 65 -65 157 -65 222 0 124 124 -15 327 -176 257z m145 -93 c-1 -17 -29 -125 -34 -130 -2 -3 -15 2 -27 11 -17 11 -26 13 -36 4 -10 -8 -13 -6 -13 10 0 11 17 35 38 53 l37 32 -48 -27 c-31 -18 -55 -25 -68 -21 -28 9 -15 20 61 49 68 26 90 31 90 19z"/></g></svg>