<svg width="32" height="32" viewBox="0 0 32 32" fill="none" xmlns="http://www.w3.org/2000/svg"><g clip-path="url(#clip0_5_12)"><path fill-rule="evenodd" clip-rule="evenodd" d="M2.24942 2.24954C0 4.49896 0 8.11935 0 15.3601V16.6401C0 23.8808 0 27.5013 2.24942 29.7506C4.49884 32.0001 8.11923 32.0001 15.36 32.0001H16.64C23.8807 32.0001 27.5012 32.0001 29.7505 29.7506C32 27.5013 32 23.8808 32 16.6401V15.3601C32 8.11935 32 4.49896 29.7505 2.24954C27.5012 0.00012207 23.8807 0.00012207 16.64 0.00012207H15.36C8.11923 0.00012207 4.49884 0.00012207 2.24942 2.24954ZM5.40006 9.73354C5.57338 18.0535 9.73335 23.0536 17.0267 23.0536H17.4401V18.2935C20.1201 18.5601 22.1467 20.5202 22.96 23.0536H26.7468C25.7068 19.2668 22.9732 17.1735 21.2666 16.3735C22.9732 15.3869 25.3733 12.9869 25.9466 9.73354H22.5065C21.7599 12.3735 19.5468 14.7735 17.4401 15.0002V9.73354H14V18.9601C11.8667 18.4269 9.17338 15.8402 9.05338 9.73354H5.40006Z" fill="white"/></g><defs><clipPath id="clip0_5_12"><rect width="32" height="32" fill="white" transform="translate(0 0.00012207)"/></clipPath></defs></svg>